<svg xmlns="http://www.w3.org/2000/svg" width="80" height="19" fill="none"><g fill="#465478" clip-path="url(#a)"><path d="M9.932 6.343c0-.197 0-.197 3.094-.197 3.095 0 3.095 0 3.095 3.911 0 3.925 0 3.925-3.095 3.925-3.094 0-3.094 0-3.094-.197v-.197a.378.378 0 0 0-.38-.38.382.382 0 0 0-.394.38v.197c0 .197 0 .197-2.335.197-2.35 0-2.35 0-2.35-4.924 0-4.923 0-4.923 2.73-4.923 2.729 0 2.729 0 2.729.366 0 .38 0 .38-.38.886-.394.506-.394.506-.394.83v.323c0 .211.169.38.394.38a.38.38 0 0 0 .38-.38v-.197Zm.773 5.079V8.707a.382.382 0 0 0-.38-.394.385.385 0 0 0-.393.394v2.715c0 .21.168.393.393.393a.39.39 0 0 0 .38-.393Zm8.834-2.477c-2.715 0-2.715 0-2.715-1.392 0-1.393 0-1.393 5.823-1.393 5.824 0 5.824 0 5.824 3.91 0 3.912 0 3.912-2.349 3.912-2.35 0-2.25-.014-2.377-.493-.043-.155-.127-.267-.352-.267-.352 0-.394.281-.394.563v.098c0 .099 0 .099-3.08.099-3.095 0-3.095 0-3.095-2.139 0-2.124 0-2.124 3.095-2.124 3.08 0 3.08 0 3.08-.886v-.886a.39.39 0 0 0-.38-.394c-.295 0-.393.267-.408.577-.056.815.029.815-2.672.815Zm3.08 2.884c.197 0 .38-.183.38-.38a.39.39 0 0 0-.38-.393H18.61a.385.385 0 0 0-.394.394c0 .21.183.38.394.38h4.01Zm6.555.915c0-1.238 0-1.238 2.7-1.238 2.701 0 2.701 0 2.701.365v.366c0 .197.17.366.366.366a.36.36 0 0 0 .352-.366v-.76c0-.745 0-.745-3.053-.745-3.066 0-3.066 0-3.066-2.293 0-2.279 0-2.279 5.767-2.279 5.768 0 5.768 0 5.768 1.238s0 1.238-2.673 1.238c-2.687 0-2.687 0-2.687-.352v-.351a.393.393 0 0 0-.394-.394.39.39 0 0 0-.38.394v.731c0 .732 0 .732 3.067.732s3.067 0 3.067 2.293 0 2.293-5.768 2.293c-5.767 0-5.767 0-5.767-1.238Zm18.43-1.941v1.392c0 .225.168.394.393.394a.39.39 0 0 0 .38-.394v-1.013c0-.998 0-.998.394-.998.38 0 .38 0 .38 1.899s0 1.899-2.476 1.899-2.476 0-3.474-1.013c-1.013-.999-1.013-.999-1.013-2.279 0-1.28 0-1.28-.38-1.28-.394 0-.394 0-.394-1.632s0-1.632.394-1.632c.38 0 .38 0 1.153-1.012.774-1 .774-1 2.715-1 1.928 0 1.928 0 1.928 1 0 1.012 0 1.012.773 1.012.774 0 .774 0 .774 1.632s0 1.632-.774 1.632c-.773 0-.773 0-.773 1.393Zm4.96-6.655c2.715 0 2.715 0 2.715.746s0 .746-2.715.746-2.715 0-2.715-.746 0-.746 2.715-.746Zm0 2.04c2.715 0 2.715 0 2.715 3.897 0 3.896 0 3.896-2.715 3.896s-2.715 0-2.715-3.896c0-3.897 0-3.897 2.715-3.897Zm6.126 7.794c-2.715 0-2.715 0-2.715-4.924 0-4.923 0-4.923 2.715-4.923 2.701 0 2.701 0 2.701 4.923 0 4.924 0 4.924-2.7 4.924Zm6.114 0c-2.715 0-2.715 0-2.715-4.924 0-4.923 0-4.923 2.715-4.923 2.7 0 2.7 0 2.7 4.923 0 4.924 0 4.924-2.7 4.924Zm3.398-3.925c0-3.897 0-3.897 5.823-3.897 5.824 0 5.824 0 5.824 3.897 0 3.91 0 3.91-5.824 3.91-5.823 0-5.823 0-5.823-3.91Zm6.19-2.096a.39.39 0 0 0-.395-.38.39.39 0 0 0-.394.38v4.164c0 .21.183.394.394.394a.403.403 0 0 0 .394-.394V7.96Z"/></g><defs><clipPath id="a"><path fill="#fff" d="M0 .049h80v18.018H0z"/></clipPath></defs></svg>