<svg xmlns="http://www.w3.org/2000/svg" width="80" height="19" fill="none"><g clip-path="url(#a)"><g clip-path="url(#b)"><path fill="#465478" fill-rule="evenodd" d="M19.787 9.986a8.288 8.288 0 1 1-16.576 0 8.288 8.288 0 0 1 16.576 0ZM11.173 5.84a.812.812 0 0 0 0 1.625h3.656a.812.812 0 0 0 0-1.625h-3.656Zm-1.91 2.032a.812.812 0 0 0 0 1.625h3.657a.813.813 0 0 0 0-1.625H9.263Zm-.285 2.843c0-.448.364-.812.812-.812h3.657a.812.812 0 1 1 0 1.625H9.79a.813.813 0 0 1-.812-.813Zm-.813 1.22a.813.813 0 0 0 0 1.624h3.656a.813.813 0 0 0 0-1.625H8.165Zm45.4-4.546h-1.179l-.214 1.026h1.18l-1.165 5.56h3.109l1.194-5.56h1.915l-1.18 5.56h3.125l1.409-6.586h-5.054l.245-1.133c.061-.256.153-.46.276-.613.122-.163.265-.286.428-.367a1.59 1.59 0 0 1 .536-.184 3.814 3.814 0 0 1 1.608.092c.327.081.654.194.98.337l.49-1.517a8.755 8.755 0 0 0-1.47-.444 7.095 7.095 0 0 0-1.424-.138 6.87 6.87 0 0 0-1.608.184c-.5.113-.96.301-1.378.567-.408.265-.76.612-1.057 1.041-.286.419-.495.934-.628 1.547l-.138.628Zm-23.04-.322c.031-.153.046-.362.046-.628 0-.153-.01-.3-.03-.444a1.41 1.41 0 0 0-.108-.398.561.561 0 0 0-.23-.276.68.68 0 0 0-.397-.107c-.184 0-.353.041-.506.123a1.485 1.485 0 0 0-.69.766 1.472 1.472 0 0 0-.09.52c0 .266.066.47.198.613.143.143.327.26.552.352.224.092.48.168.765.23.286.061.582.132.889.214.255.072.51.163.765.276.256.112.48.265.674.46.204.183.368.428.49.734.123.296.184.669.184 1.118 0 .643-.128 1.185-.383 1.624a3.035 3.035 0 0 1-1.057 1.072c-.449.275-.985.474-1.608.597-.612.122-1.28.184-2.006.184-.735 0-1.337-.046-1.807-.138a6.531 6.531 0 0 1-1.087-.322c-.317-.133-.551-.286-.705-.46l.521-2.097H27.6c-.01.092-.02.22-.03.383-.01.153-.016.275-.016.367 0 .123.016.25.046.383.031.133.077.255.138.367a.838.838 0 0 0 .291.276.9.9 0 0 0 .46.107c.204 0 .382-.046.536-.138.163-.091.296-.204.398-.336.112-.143.194-.296.245-.46.061-.173.092-.342.092-.505a.932.932 0 0 0-.169-.567 1.206 1.206 0 0 0-.429-.383 2.653 2.653 0 0 0-.643-.275c-.235-.082-.48-.164-.735-.245a11.673 11.673 0 0 1-.78-.26 2.668 2.668 0 0 1-.736-.43 2.356 2.356 0 0 1-.567-.689c-.143-.286-.214-.648-.214-1.087 0-.653.163-1.2.49-1.639a3.917 3.917 0 0 1 1.256-1.087 5.68 5.68 0 0 1 1.67-.582 8.617 8.617 0 0 1 1.714-.184c.715 0 1.328.087 1.838.26.52.164.914.358 1.18.583l-.567 2.128h-2.543Zm5.068 9.48H32.47l1.93-9.158h2.496l.275.98h.092a3.183 3.183 0 0 1 1.226-.827 3.8 3.8 0 0 1 1.347-.26c.358 0 .654.056.889.168a1.4 1.4 0 0 1 .582.429c.142.184.245.403.306.658.061.256.092.526.092.812 0 .143-.01.357-.031.643a7.803 7.803 0 0 1-.444 2.052 3.988 3.988 0 0 1-.536 1.011c-.215.307-.49.557-.827.75-.327.195-.72.292-1.18.292a3 3 0 0 1-1.393-.337 2.741 2.741 0 0 1-.52-.353 1.68 1.68 0 0 1-.322-.428h-.092l-.766 3.568Zm1.623-3.936c.245 0 .45-.127.613-.383a3.77 3.77 0 0 0 .398-.919 6.71 6.71 0 0 0 .215-1.056c.05-.358.076-.623.076-.797 0-.204-.035-.372-.107-.505-.061-.133-.179-.2-.352-.2a.854.854 0 0 0-.551.215 2.18 2.18 0 0 0-.383.353l-.598 2.802c.082.112.179.225.291.337a.572.572 0 0 0 .399.153Zm4.441 1.363h3.11L46.19 7.39h-3.139l-1.394 6.585Zm4.779-7.979c.102-.173.153-.377.153-.612 0-.409-.138-.71-.414-.904-.275-.194-.612-.29-1.01-.29-.225 0-.445.03-.66.091a1.747 1.747 0 0 0-.55.276 1.2 1.2 0 0 0-.368.444 1.258 1.258 0 0 0-.138.597c0 .419.138.725.414.919.275.194.617.29 1.026.29.214 0 .423-.03.628-.09a1.57 1.57 0 0 0 .536-.277c.163-.122.29-.27.383-.444Zm.26 1.394c.377-.082.709-.174.995-.276.286-.102.546-.23.78-.383.246-.153.476-.342.69-.566.225-.225.465-.5.72-.827h1.577l-.444 2.052h1.195l-.2 1.026H50.8l-.627 2.986a13.26 13.26 0 0 0-.123.628c-.03.184-.046.327-.046.429 0 .204.072.332.215.383.153.05.434.076.842.076l-.23 1.057a1.77 1.77 0 0 1-.337.046c-.143.01-.306.02-.49.03a4.585 4.585 0 0 1-.551.031 9.22 9.22 0 0 1-.49.016 4.56 4.56 0 0 1-.75-.062 1.912 1.912 0 0 1-.659-.199 1.323 1.323 0 0 1-.475-.474c-.112-.205-.168-.48-.168-.827 0-.123.005-.276.015-.46a5.57 5.57 0 0 1 .107-.613l.644-3.047H46.48l.214-1.026Zm16.105 0h2.496l.23 1.148h.107c.235-.367.536-.678.903-.934.368-.255.853-.383 1.455-.383.041 0 .102.006.184.016a1 1 0 0 1 .291.046c.112.02.225.056.337.107.122.04.24.102.352.184l-.674 3.155h-1.669c-.02-.633-.076-1.073-.168-1.318-.092-.255-.24-.382-.444-.382a.884.884 0 0 0-.337.076c-.113.041-.23.138-.353.291l-.98 4.58h-3.124l1.394-6.586Zm9.102 4.15c.021-.204.052-.418.092-.643H76.3a2.39 2.39 0 0 0 .368-.812c.081-.326.122-.628.122-.903 0-.674-.26-1.17-.781-1.486-.51-.316-1.276-.475-2.297-.475-.94 0-1.726.113-2.359.337-.623.225-1.123.526-1.5.904a3.266 3.266 0 0 0-.797 1.271c-.153.48-.23.97-.23 1.47 0 .552.092 1.016.276 1.394.194.367.454.663.781.888.327.225.71.383 1.149.475.439.092.913.138 1.424.138.276 0 .566-.016.873-.046a8.75 8.75 0 0 0 .903-.107c.297-.062.577-.138.843-.23.265-.092.5-.204.704-.337l.398-1.639h-2.511a1.974 1.974 0 0 1-.26.551 1.982 1.982 0 0 1-.338.414c-.112.112-.23.2-.352.26a.648.648 0 0 1-.306.092.43.43 0 0 1-.29-.092.987.987 0 0 1-.154-.245 1.632 1.632 0 0 1-.062-.321 3.45 3.45 0 0 1-.015-.307c0-.163.005-.347.015-.55Zm1.608-3.277a.48.48 0 0 1 .368.168c.102.113.153.327.153.643 0 .113-.01.235-.03.368-.01.133-.026.255-.046.368-.02.132-.041.26-.061.383h-1.747c.062-.256.138-.496.23-.72.092-.235.194-.44.307-.613a1.56 1.56 0 0 1 .367-.429.73.73 0 0 1 .46-.168Z" clip-rule="evenodd"/></g></g><defs><clipPath id="a"><path fill="#fff" d="M0 .977h80v18.018H0z"/></clipPath><clipPath id="b"><path fill="#fff" d="M0 .977h80v18.018H0z"/></clipPath></defs></svg>