<svg xmlns="http://www.w3.org/2000/svg" width="80" height="18" fill="none"><g clip-path="url(#a)"><g clip-path="url(#b)"><path fill="#465478" fill-rule="evenodd" d="M6.54 8.449a3.315 3.315 0 0 1 4.177.411 3.297 3.297 0 0 1-1.073 5.384 3.318 3.318 0 0 1-3.606-.715 3.3 3.3 0 0 1 .501-5.08Zm.612 4.575a2.21 2.21 0 0 0 2.786-.273 2.199 2.199 0 0 0-.716-3.59 2.21 2.21 0 0 0-2.404.476 2.2 2.2 0 0 0 .334 3.387Zm4.893-9.64L14.1 9.176a6.04 6.04 0 0 1-.789 5.537 6.077 6.077 0 0 1-9.943-.11 6.045 6.045 0 0 1-.665-5.553l2.034-5.744a3.867 3.867 0 0 1 7.308.078ZM6.071 15.578a4.978 4.978 0 0 0 2.307.569 4.978 4.978 0 0 0 4.051-2.094 4.95 4.95 0 0 0 .63-4.51l-2.056-5.797-.004-.013a2.752 2.752 0 0 0-2.59-1.896 2.762 2.762 0 0 0-2.632 1.836l-2.036 5.75a4.946 4.946 0 0 0 .552 4.583c.456.66 1.066 1.2 1.778 1.572Zm55.742-11.72H60.27v4.239h-.033c-.513-.607-1.228-.91-2.131-.91-.459 0-.89.087-1.288.263a3.058 3.058 0 0 0-1.032.72c-.29.311-.52.682-.681 1.113a3.86 3.86 0 0 0-.25 1.402c0 .411.048.795.156 1.16.108.364.256.68.451.957.196.276.425.512.695.714.27.202.566.357.904.458a3.43 3.43 0 0 0 1.058.155c.944 0 1.68-.337 2.192-1.01h.027v.903h1.476V3.857Zm-2.05 8.303c-.377.378-.849.566-1.402.566-.573 0-1.038-.188-1.396-.566-.364-.377-.54-.87-.54-1.47 0-.31.048-.6.15-.869a1.849 1.849 0 0 1 1.03-1.085c.237-.094.493-.148.763-.148.573 0 1.045.202 1.41.6.363.404.552.903.552 1.503 0 .607-.189 1.092-.566 1.47ZM25.028 7.288h-1.545v.809h-.027c-.512-.607-1.207-.91-2.083-.91-.459 0-.89.087-1.288.263a3.057 3.057 0 0 0-1.032.72c-.29.311-.52.682-.681 1.113a3.86 3.86 0 0 0-.25 1.402c0 .411.048.795.156 1.16.107.364.256.68.451.957.196.276.425.512.695.714.27.202.566.357.904.458a3.43 3.43 0 0 0 1.058.155c.917 0 1.632-.337 2.144-1.01h.02v.903h1.477V7.288Zm-2.044 4.873c-.37.378-.822.566-1.355.566-.573 0-1.038-.188-1.396-.566-.364-.377-.54-.87-.54-1.47 0-.31.048-.6.149-.869a1.85 1.85 0 0 1 1.032-1.085c.236-.094.492-.148.762-.148.546 0 .998.202 1.362.607.364.404.546.903.546 1.496 0 .6-.189 1.092-.56 1.47Zm9.536-4.873h-1.666l-1.726 4.8H29.1l-1.76-4.8h-1.652l2.684 6.734h1.477l2.67-6.734Zm3.453 6.841a3.906 3.906 0 0 1-1.45-.262 3.173 3.173 0 0 1-1.126-.722 3.24 3.24 0 0 1-.708-1.105 3.563 3.563 0 0 1-.256-1.375c0-.66.141-1.254.431-1.78a3.16 3.16 0 0 1 1.248-1.24c.54-.303 1.16-.458 1.86-.458.682 0 1.289.148 1.828.438.533.29.951.701 1.255 1.227.296.532.451 1.139.451 1.813 0 .674-.155 1.28-.452 1.806a3.154 3.154 0 0 1-1.26 1.227c-.54.29-1.147.431-1.821.431Zm0-1.402c.553 0 1.018-.188 1.396-.58.377-.39.566-.882.566-1.482 0-.607-.189-1.106-.56-1.496a1.887 1.887 0 0 0-1.402-.58c-.587 0-1.059.202-1.423.593-.364.398-.546.89-.546 1.483 0 .586.182 1.078.553 1.47.37.397.843.592 1.416.592Zm5.874.971c.519.29 1.106.431 1.767.431.62 0 1.18-.107 1.685-.33a3.39 3.39 0 0 0 1.228-.856L45.46 12a1.95 1.95 0 0 1-.243.23 2.098 2.098 0 0 1-.64.357 2.286 2.286 0 0 1-.823.141c-.391 0-.742-.08-1.045-.256a1.813 1.813 0 0 1-.708-.734c-.169-.31-.25-.674-.25-1.086a2.2 2.2 0 0 1 .25-1.071 1.78 1.78 0 0 1 .701-.728 2.023 2.023 0 0 1 1.045-.263c.351 0 .675.067.965.202.283.135.532.324.735.56l1.052-.91a3.221 3.221 0 0 0-1.255-.93 4.03 4.03 0 0 0-1.578-.324c-.674 0-1.28.148-1.807.438a3.192 3.192 0 0 0-1.234 1.233c-.297.526-.445 1.133-.445 1.807 0 .68.142 1.287.438 1.813.297.526.702.937 1.228 1.22Zm10.473-6.41h1.544v6.734h-1.477v-.904h-.02c-.513.674-1.227 1.011-2.145 1.011-.37 0-.721-.047-1.058-.155a2.857 2.857 0 0 1-.904-.458 3.176 3.176 0 0 1-.694-.714 3.219 3.219 0 0 1-.452-.957 4.048 4.048 0 0 1-.155-1.16c0-.499.08-.964.25-1.402.161-.431.39-.802.68-1.112a3.058 3.058 0 0 1 1.032-.721c.398-.176.83-.263 1.288-.263.877 0 1.571.303 2.084.91h.026v-.809Zm-1.855 5.44c.533 0 .985-.19 1.356-.567.37-.377.56-.87.56-1.47 0-.592-.183-1.091-.547-1.495a1.754 1.754 0 0 0-1.362-.607c-.27 0-.526.054-.762.148a1.943 1.943 0 0 0-.614.418 1.848 1.848 0 0 0-.418.667c-.101.27-.148.56-.148.87 0 .6.175 1.092.54 1.47.357.377.822.565 1.395.565Zm15.949 1.402a3.906 3.906 0 0 1-1.45-.263 3.175 3.175 0 0 1-1.126-.722 3.242 3.242 0 0 1-.708-1.105 3.564 3.564 0 0 1-.256-1.375c0-.66.141-1.254.431-1.78a3.16 3.16 0 0 1 1.248-1.24c.54-.303 1.16-.458 1.86-.458.682 0 1.289.148 1.828.438.533.29.951.701 1.255 1.227.296.532.451 1.139.451 1.813 0 .674-.155 1.28-.451 1.806a3.154 3.154 0 0 1-1.261 1.227c-.54.29-1.147.431-1.821.431Zm0-1.403c.553 0 1.018-.188 1.396-.58.377-.39.566-.882.566-1.482 0-.607-.189-1.106-.56-1.496a1.887 1.887 0 0 0-1.402-.58c-.587 0-1.059.202-1.423.593-.364.398-.546.89-.546 1.483 0 .586.182 1.078.553 1.47.37.397.843.592 1.416.592Zm6.292 1.14a3.91 3.91 0 0 0 1.45.262c.674 0 1.28-.141 1.82-.43a3.15 3.15 0 0 0 1.261-1.228 3.625 3.625 0 0 0 .452-1.806 3.67 3.67 0 0 0-.452-1.813 3.182 3.182 0 0 0-1.254-1.227 3.792 3.792 0 0 0-1.827-.438c-.701 0-1.322.155-1.862.458a3.164 3.164 0 0 0-1.247 1.24c-.29.526-.431 1.12-.431 1.78 0 .492.08.95.256 1.375.168.431.404.795.708 1.105.303.31.681.546 1.126.722Zm2.845-1.72c-.377.392-.842.58-1.395.58-.574 0-1.046-.195-1.416-.593-.371-.39-.553-.883-.553-1.47 0-.592.182-1.084.546-1.482.364-.39.836-.593 1.423-.593.56 0 1.025.195 1.403.58.37.39.559.89.559 1.496 0 .6-.19 1.092-.567 1.483Z" clip-rule="evenodd"/></g></g><defs><clipPath id="a"><path fill="#fff" d="M0 0h80v17.977H0z"/></clipPath><clipPath id="b"><path fill="#fff" d="M0 0h80v17.977H0z"/></clipPath></defs></svg>