<svg xmlns="http://www.w3.org/2000/svg" width="80" height="19" fill="none"><g clip-path="url(#a)"><g clip-path="url(#b)"><path fill="#465478" fill-rule="evenodd" d="m1.302 6.205.007-1.24c1.312-.749 2.33-1.332 3.316-1.898 1.217-.699 2.387-1.37 4.007-2.292l.292.171.546.32-7.253 4.25.84.492-.053 8.413-1.748-1.02.005-.98h-.002l.039-5.707.002-.508.002-.001Zm4.877 2.85.006-1.24.001-.001c1.311-.748 2.328-1.332 3.315-1.898 1.217-.698 2.388-1.37 4.007-2.291l.292.17.546.32-7.253 4.251.84.492-.053 8.414-1.748-1.022.005-.979h-.002l.04-5.707.002-.508.002-.002ZM3.74 7.63l.006-1.24h.002c1.31-.749 2.328-1.332 3.314-1.898 1.218-.698 2.388-1.37 4.008-2.291l.292.17.546.32-7.254 4.25.841.492-.053 8.414-1.749-1.022.005-.979h-.002l.04-5.707.002-.508.002-.001Zm58.76 5.338V5.51h1.635v7.46H62.5Zm-.144-9.596c0-.244.086-.445.273-.617a1.03 1.03 0 0 1 .688-.244c.258 0 .488.086.674.258.172.172.273.373.273.603 0 .258-.1.473-.273.645a.955.955 0 0 1-.674.244c-.287 0-.53-.072-.703-.244a.876.876 0 0 1-.258-.645Zm-32.58 4.274-.804-1.205c.344-.344.803-.602 1.363-.803a5.197 5.197 0 0 1 1.764-.301c.975 0 1.721.272 2.252.803.53.545.803 1.291.803 2.267v4.561H33.52v-.817c-.545.602-1.32.903-2.31.903-.831 0-1.491-.2-1.979-.63-.488-.431-.732-1.005-.732-1.722 0-.79.316-1.377.947-1.779.631-.387 1.478-.588 2.54-.588.616 0 1.132.072 1.534.2 0-.559-.115-.975-.359-1.262-.258-.272-.674-.416-1.248-.416-.745 0-1.448.273-2.137.79Zm1.792 3.988c.847 0 1.492-.33 1.951-1.018v-.717a4.46 4.46 0 0 0-1.363-.201c-1.32 0-1.965.33-1.965.99 0 .3.115.53.373.702.244.172.574.244 1.004.244Zm-10.427 1.334V5.51h1.635v.674c.56-.545 1.32-.832 2.295-.832 1.994 0 2.998 1.133 2.998 3.4v4.217h-1.635V8.88c0-.703-.158-1.22-.445-1.535-.301-.315-.76-.473-1.391-.473-.402 0-.775.115-1.09.344-.33.23-.574.53-.732.918v4.834h-1.635Zm14.92-7.459v7.46h1.635V8.133c.158-.387.401-.688.731-.918.316-.23.689-.344 1.09-.344.632 0 1.09.158 1.392.473.287.316.445.832.445 1.535v4.088h1.635V8.751c0-2.267-1.004-3.4-2.998-3.4-.975 0-1.736.287-2.295.832V5.51h-1.635Zm7.487 3.715c0-1.119.358-2.051 1.104-2.783.746-.731 1.707-1.104 2.883-1.104 1.177 0 2.138.373 2.884 1.104.745.732 1.118 1.664 1.118 2.783 0 1.12-.372 2.052-1.118 2.783-.746.732-1.707 1.09-2.884 1.09-1.162 0-2.123-.358-2.869-1.09-.745-.731-1.118-1.664-1.118-2.783Zm1.692 0c0 .689.201 1.248.631 1.693.43.445.976.66 1.664.66.689 0 1.234-.215 1.664-.646.43-.43.646-.99.646-1.707 0-.703-.23-1.276-.66-1.707-.445-.43-.99-.66-1.65-.66-.674 0-1.219.216-1.65.646-.43.43-.645 1.004-.645 1.721Zm14.665 3.744 2.41-7.459h-1.664l-1.45 4.734-1.778-4.734H56.19l-1.75 4.72-1.55-4.72H51.2l2.495 7.46h1.277l1.822-4.85 1.807 4.85h1.306Zm9.182-2.64c.316.144.474.316.474.517 0 .258-.13.445-.359.56-.23.114-.516.172-.86.172-.488 0-.933-.1-1.363-.33-.43-.215-.76-.488-.962-.832l-1.29.89c.272.53.717.96 1.334 1.29.602.345 1.32.502 2.123.502.875 0 1.606-.186 2.194-.573.574-.373.875-.947.875-1.693 0-.402-.115-.76-.344-1.076a2.34 2.34 0 0 0-.832-.717 15.65 15.65 0 0 0-1.09-.445 11.088 11.088 0 0 0-1.076-.33 3.38 3.38 0 0 1-.846-.315c-.23-.115-.33-.259-.33-.416 0-.445.358-.675 1.104-.675.947 0 1.664.287 2.166.861l1.12-1.061c-.259-.359-.675-.675-1.22-.933a4.243 4.243 0 0 0-1.793-.387c-.961 0-1.707.2-2.252.602-.545.402-.818.933-.818 1.621 0 .474.144.875.46 1.205a2.74 2.74 0 0 0 1.132.746c.445.172.89.316 1.334.43.43.115.804.244 1.12.388Zm8.35.259 1.004.99c-.76 1.018-1.764 1.52-3.026 1.52-1.206 0-2.18-.344-2.912-1.047-.732-.703-1.09-1.65-1.09-2.826 0-1.133.33-2.065 1.003-2.797.675-.717 1.621-1.09 2.826-1.09 1.004 0 1.851.315 2.51.947.66.63.99 1.448.99 2.467 0 .258-.028.602-.086 1.047H73.12c.057.574.301 1.019.731 1.32.416.315.947.459 1.592.459.832 0 1.507-.33 1.994-.99Zm-2.266-3.773c-.546 0-1.004.144-1.349.416a1.9 1.9 0 0 0-.688 1.148h3.916c-.072-.502-.273-.89-.588-1.162-.33-.258-.76-.402-1.291-.402ZM10.454 7.855l-.013 1.18h.002l-.006.509-.005.396-1.743-1.092 1.765-.993Zm4.921-2.771-.012 1.179.001.001-.005.508-.08 5.728h-.002l-.004.475-1.736-1.089.075-5.81 1.763-.992Zm-2.46 1.385-.013 1.18.002.001-.006.508-.046 3.3-1.74-1.09.038-2.906 1.764-.993Z" clip-rule="evenodd"/></g></g><defs><clipPath id="a"><path fill="#fff" d="M0 .014h80v18.018H0z"/></clipPath><clipPath id="b"><path fill="#fff" d="M0 .014h80v18.018H0z"/></clipPath></defs></svg>