<svg xmlns="http://www.w3.org/2000/svg" width="80" height="19" fill="none"><g fill="#465478" clip-path="url(#a)"><path d="M9.96 13.78H8.692L4.427 8.604v5.11l-.065.066H2.376l-.065-.066V4.405l.066-.065h1.269c.125.103.83.96 2.116 2.571L7.91 9.515v-5.11l.065-.065h1.986l.065.065v9.31l-.065.065Zm9.214 0h-6.999l-.065-.066V4.405l.065-.065h6.868l.065.065v1.953l-.065.065h-4.85v1.563h4.623l.065.065v1.953l-.066.065h-4.622v1.627h4.98l.066.065v1.953l-.065.066Zm9.643 0H26.31c-.185-.185-.912-1.205-2.181-3.06h-.033l-2.213 3.06H19.41l-.065-.066 3.45-4.752-3.19-4.557V4.34h2.441c.375.461 1.047 1.405 2.019 2.832.081-.06.59-.765 1.53-2.116l.553-.716h2.441v.032L25.4 8.93l3.418 4.785v.066Zm3.923.114c-1.378 0-2.474-.63-3.288-1.888-.304-.64-.456-1.215-.456-1.725V4.389l.065-.065h1.954l.065.065v5.339c0 1.128.39 1.8 1.171 2.018l.391.065h.228c.776 0 1.296-.434 1.562-1.302l.033-.358V4.389l.065-.065h1.986l.065.065v5.664c0 1.807-.89 3.033-2.67 3.678a4.877 4.877 0 0 1-1.171.163Zm8.716-.008c-1.52 0-2.735-.554-3.646-1.66-.2-.283-.407-.673-.618-1.172 1.193-.608 1.822-.912 1.888-.912.423 1.107 1.193 1.66 2.31 1.66h.196c1.085-.075 1.628-.325 1.628-.748l.032-.196c0-.466-.922-.824-2.767-1.074-1.866-.423-2.8-1.28-2.8-2.571v-.228c0-1.291.815-2.181 2.442-2.67.467-.086.847-.13 1.14-.13h.488c1.606 0 2.82.76 3.645 2.28v.097l-1.79 1.009c-.434-.803-.857-1.205-1.27-1.205 0-.043-.303-.086-.91-.13-.75 0-1.27.196-1.563.586a2.709 2.709 0 0 0-.065.293c0 .342.683.602 2.05.781 1.313.293 2.127.575 2.442.847.716.558 1.074 1.275 1.074 2.148 0 1.362-.76 2.284-2.279 2.767a6.448 6.448 0 0 1-1.627.228Zm9.302 0h-.065c-1.872 0-3.282-.792-4.232-2.376-.369-.743-.553-1.481-.553-2.213v-.489c0-1.638.727-2.94 2.18-3.906.793-.455 1.574-.683 2.344-.683h.586c1.351 0 2.566.64 3.646 1.92-.005.06-.45.548-1.334 1.465-.76-.89-1.639-1.335-2.637-1.335-1.248 0-2.094.575-2.54 1.726a3.289 3.289 0 0 0-.162 1.074c0 1.475.716 2.376 2.148 2.701l.652.033c.661 0 1.204-.184 1.627-.553v-.75h-2.702l-.065-.065v-1.92l.065-.066h4.72l.065.065v3.646c-1.063 1.15-2.31 1.725-3.743 1.725Zm13.566-.106h-2.213c-.136-.196-.44-.847-.912-1.954h-3.743c-.038.017-.331.657-.879 1.921l-.033.033h-2.213l-.033-.033h-.032l4.232-9.407h1.595c.075.043.423.792 1.041 2.246l3.223 7.161-.033.033Zm-3.125-1.954L59.344 7.4h-.065l-1.823 4.426h3.743Zm5.591 1.954h-1.985l-.065-.066V6.391h-2.8l-.064-.066v-1.92l.065-.065h7.747l.065.065v1.92l-.065.066h-2.832v7.323l-.065.066Zm10.832 0h-6.998l-.065-.066V4.405l.065-.065h6.868l.066.065v1.953l-.066.065h-4.85v1.563h4.622l.066.065v1.953l-.066.065h-4.622v1.627h4.98l.065.065v1.953l-.065.066Z"/></g><defs><clipPath id="a"><path fill="#fff" d="M0 .031h80V18.05H0z"/></clipPath></defs></svg>