<svg xmlns="http://www.w3.org/2000/svg" width="80" height="19" fill="none"><g clip-path="url(#a)"><path fill="#465478" fill-rule="evenodd" d="m11.23 7.25 3.976 6.89 2.966-5.136-.99-1.71-1.975 3.423-.99-1.712 1.977-3.423-.989-1.712-1.976 3.423-1.012-1.754 2.458-4.258h1.012l2.23 3.862.005.009 2.224 3.853-4.46 7.724h-1.011l-4.46-7.724 1.013-1.754h.001ZM6.77 1.283h1.977l-4.46 7.723 3.471 6.013h1.976l-3.47-6.013 4.459-7.723h1.976L8.24 9.005l4.46 7.723H6.77L2.312 9.005l4.46-7.723Zm25.036 8.252V8.276h4.915a4.4 4.4 0 0 1 .054.736c0 2.677-2.026 4.846-4.848 4.846-2.808 0-4.847-2.169-4.847-4.846 0-2.69 2.039-4.86 4.847-4.86 1.58 0 2.97.763 3.849 1.942l-1.094.843a3.351 3.351 0 0 0-2.755-1.446c-1.958 0-3.402 1.486-3.402 3.52 0 2.022 1.444 3.508 3.402 3.508 1.904 0 3.227-1.191 3.362-2.985h-3.483Zm6.008 4.15v-9.37h5.24v1.298H39.19V8.17h3.74v1.258h-3.74v2.918h3.943v1.34h-5.32ZM47.882 8.21h-1.324c-.796 0-1.377-.563-1.377-1.312 0-.75.58-1.312 1.377-1.312h2.782V4.313h-2.944c-1.458 0-2.62 1.151-2.62 2.584 0 1.432 1.162 2.584 2.62 2.584h1.243c.81 0 1.458.629 1.458 1.432 0 .79-.648 1.432-1.458 1.432h-3.417v1.34h3.552a2.768 2.768 0 0 0 2.781-2.772c0-1.446-1.188-2.704-2.673-2.704Zm5.85 0h1.324c1.485 0 2.673 1.258 2.673 2.704a2.768 2.768 0 0 1-2.782 2.771h-3.55v-1.339h3.415c.81 0 1.459-.642 1.459-1.432 0-.803-.648-1.432-1.459-1.432H53.57c-1.458 0-2.62-1.152-2.62-2.584 0-1.433 1.162-2.584 2.62-2.584h2.944v1.272h-2.782c-.797 0-1.377.562-1.377 1.312s.58 1.312 1.377 1.312Zm4.865-3.896v9.371h5.239v-1.339h-3.862V4.313h-1.377Zm6.04 9.371v-9.37h5.239v1.298h-3.862V8.17h3.74v1.258h-3.74v2.918h3.943v1.34h-5.32Zm13.051-.388c0-1.125-.405-2.303-1.58-2.972.77-.428 1.58-1.339 1.58-2.678 0-1.807-1.418-3.333-3.605-3.333h-3.011v9.371h1.377V10.94h1.391c1.756 0 2.444 1.325 2.444 2.356v.388h1.404v-.388Zm-3.551-7.711c1.31 0 2.12.924 2.12 2.061 0 1.045-.824 2.062-2.12 2.062h-1.688V5.585h1.688Z" clip-rule="evenodd"/></g><defs><clipPath id="a"><path fill="#fff" d="M0-.004h80v18.018H0z"/></clipPath></defs></svg>